<svg width="138" height="66" viewBox="0 0 138 66" fill="none" xmlns="http://www.w3.org/2000/svg">
<path d="M3.14177 64.358V55.6735H4.35447L8.25673 62.8254H8.30476C8.29675 62.6146 8.28475 62.3713 8.26874 62.0956C8.25273 61.8199 8.24072 61.5443 8.23272 61.2686C8.22471 60.9848 8.22071 60.7415 8.22071 60.5388V55.6735H9.16926V64.358H7.99258L4.04229 57.1818H3.99426C4.01027 57.3926 4.02228 57.644 4.03029 57.9359C4.04629 58.2197 4.0583 58.5035 4.06631 58.7873C4.08232 59.0711 4.09032 59.3225 4.09032 59.5414V64.358H3.14177ZM10.3099 64.358V63.5187H13.3957V64.358H10.3099ZM11.8468 62.7281C11.5026 62.7281 11.1944 62.6511 10.9223 62.497C10.6581 62.3349 10.45 62.0997 10.2979 61.7916C10.1458 61.4834 10.0698 61.1064 10.0698 60.6604C10.0698 59.9955 10.2299 59.4887 10.5501 59.14C10.8782 58.7832 11.3225 58.6048 11.8828 58.6048C12.227 58.6048 12.5312 58.6859 12.7954 58.8481C13.0675 59.0022 13.2796 59.2333 13.4317 59.5414C13.5918 59.8414 13.6719 60.2144 13.6719 60.6604C13.6719 61.3253 13.5078 61.8362 13.1796 62.193C12.8514 62.5497 12.4071 62.7281 11.8468 62.7281ZM11.8708 62.0227C12.223 62.0227 12.4752 61.9091 12.6273 61.6821C12.7793 61.4469 12.8554 61.1064 12.8554 60.6604C12.8554 60.2063 12.7793 59.8739 12.6273 59.663C12.4752 59.4441 12.223 59.3346 11.8708 59.3346C11.5266 59.3346 11.2745 59.4441 11.1144 59.663C10.9543 59.8739 10.8742 60.2063 10.8742 60.6604C10.8742 61.1064 10.9503 61.4469 11.1024 61.6821C11.2625 61.9091 11.5186 62.0227 11.8708 62.0227Z" fill="white" fill-opacity="0.4"/>
<path d="M14.5067 64.358V63.4944L17.7726 60.6239C18.5531 59.9428 19.2014 59.286 19.2014 58.3616C19.2014 57.2912 18.481 56.6831 17.3644 56.6831C16.2837 56.6831 15.5633 57.4129 15.5633 58.5805V58.7386H14.5547V58.5197C14.5547 56.9142 15.6714 55.7708 17.3644 55.7708C19.1774 55.7708 20.234 56.7804 20.234 58.3129C20.234 59.59 19.4176 60.3928 18.421 61.2564L15.8995 63.4214H20.2941V64.358H14.5067Z" fill="white" fill-opacity="0.4"/>
<path d="M27.1245 64.358H24.483V58.1548H27.0885C28.6014 58.1548 29.3338 58.7508 29.3338 59.8211C29.3338 60.5996 28.8295 61.0253 28.3252 61.1469C29.0336 61.2564 29.5619 61.7064 29.5619 62.5578C29.5619 63.762 28.7214 64.358 27.1245 64.358ZM25.4676 59.0062V60.7942H27.1725C27.989 60.7942 28.3372 60.4536 28.3372 59.8941C28.3372 59.2981 27.989 59.0062 27.1725 59.0062H25.4676ZM25.4676 61.6213V63.5066H27.2686C28.1091 63.5066 28.5653 63.2147 28.5653 62.57C28.5653 61.9619 28.1091 61.6213 27.2686 61.6213H25.4676Z" fill="white" fill-opacity="0.4"/>
<path d="M33.9371 64.358V55.8438H39.2922V56.8169H34.9817V59.5414H38.5718V60.5144H34.9817V63.3849H39.4483V64.358H33.9371Z" fill="white" fill-opacity="0.4"/>
<path d="M45.022 59.1035V55.8438H46.0066V64.358H45.1541L45.022 63.3606C44.6138 63.9323 43.9534 64.431 42.9208 64.431C41.2278 64.431 39.9791 63.2755 39.9791 61.2564C39.9791 59.359 41.2278 58.0818 42.9208 58.0818C43.9534 58.0818 44.6498 58.5075 45.022 59.1035ZM43.0168 63.5431C44.2175 63.5431 45.034 62.6065 45.034 61.2807C45.034 59.9185 44.2175 58.9697 43.0168 58.9697C41.8041 58.9697 40.9877 59.9063 40.9877 61.2564C40.9877 62.6065 41.8041 63.5431 43.0168 63.5431Z" fill="white" fill-opacity="0.4"/>
<path d="M51.6343 61.2564V58.1548H52.6188V64.358H51.7663L51.6343 63.5309C51.274 63.9931 50.6857 64.431 49.6771 64.431C48.3323 64.431 47.2637 63.6647 47.2637 61.6091V58.1548H48.2483V61.5483C48.2483 62.8376 48.8246 63.5187 49.8452 63.5187C50.9619 63.5187 51.6343 62.6551 51.6343 61.2564Z" fill="white" fill-opacity="0.4"/>
<path d="M56.7106 64.431C54.9215 64.431 53.7448 63.2025 53.7448 61.2686C53.7448 59.3711 54.9575 58.0818 56.7346 58.0818C58.2354 58.0818 59.184 58.9332 59.4361 60.2955H58.4035C58.2234 59.4684 57.6231 58.9697 56.7226 58.9697C55.5459 58.9697 54.7534 59.9185 54.7534 61.2686C54.7534 62.6187 55.5459 63.5431 56.7226 63.5431C57.5991 63.5431 58.1994 63.0322 58.3915 62.2416H59.4361C59.196 63.5795 58.1994 64.431 56.7106 64.431Z" fill="white" fill-opacity="0.4"/>
<path d="M65.9307 63.4457H66.2429V64.358H65.7025C64.8861 64.358 64.6099 64.0053 64.5979 63.3971C64.2137 63.9566 63.6013 64.431 62.5447 64.431C61.1999 64.431 60.2874 63.7498 60.2874 62.6187C60.2874 61.378 61.1399 60.6847 62.7488 60.6847H64.5499V60.259C64.5499 59.4563 63.9856 58.9697 63.025 58.9697C62.1605 58.9697 61.5842 59.3833 61.4641 60.0158H60.4795C60.6236 58.7994 61.5962 58.0818 63.073 58.0818C64.6339 58.0818 65.5345 58.8724 65.5345 60.3198V63.0322C65.5345 63.3606 65.6545 63.4457 65.9307 63.4457ZM64.5499 61.8281V61.524H62.6528C61.7763 61.524 61.284 61.8524 61.284 62.5578C61.284 63.166 61.8003 63.5795 62.6168 63.5795C63.8415 63.5795 64.5499 62.8619 64.5499 61.8281Z" fill="white" fill-opacity="0.4"/>
<path d="M67.456 62.7403V59.067H66.3514V58.1548H67.456V56.4155H68.4406V58.1548H70.0255V59.067H68.4406V62.7281C68.4406 63.2511 68.6207 63.4457 69.149 63.4457H70.1216V64.358H69.0529C67.8763 64.358 67.456 63.835 67.456 62.7403Z" fill="white" fill-opacity="0.4"/>
<path d="M71.479 57.1088C71.1188 57.1088 70.8426 56.8412 70.8426 56.4641C70.8426 56.0871 71.1188 55.8195 71.479 55.8195C71.8392 55.8195 72.1154 56.0871 72.1154 56.4641C72.1154 56.8412 71.8392 57.1088 71.479 57.1088ZM70.9747 64.358V58.1548H71.9593V64.358H70.9747Z" fill="white" fill-opacity="0.4"/>
<path d="M76.1297 64.431C74.3407 64.431 73.092 63.1417 73.092 61.2564C73.092 59.3711 74.3407 58.0818 76.1297 58.0818C77.9188 58.0818 79.1675 59.3711 79.1675 61.2564C79.1675 63.1417 77.9188 64.431 76.1297 64.431ZM76.1297 63.5431C77.3424 63.5431 78.1589 62.5822 78.1589 61.2564C78.1589 59.9306 77.3424 58.9697 76.1297 58.9697C74.917 58.9697 74.1006 59.9306 74.1006 61.2564C74.1006 62.5822 74.917 63.5431 76.1297 63.5431Z" fill="white" fill-opacity="0.4"/>
<path d="M83.2982 58.0818C84.679 58.0818 85.7717 58.8481 85.7717 60.9037V64.358H84.7871V60.9645C84.7871 59.6752 84.1988 58.9941 83.1302 58.9941C81.9775 58.9941 81.2811 59.8576 81.2811 61.2564V64.358H80.2965V58.1548H81.149L81.2811 58.9941C81.6413 58.5197 82.2657 58.0818 83.2982 58.0818Z" fill="white" fill-opacity="0.4"/>
<path d="M90.9773 61.3172H86.9789V60.478H90.9773V61.3172Z" fill="white" fill-opacity="0.4"/>
<path d="M97.6834 58.1548V63.4457H98.656V66H97.6714V64.358H92.6765V66H91.6919V63.4457H92.3163C92.7606 63.1052 93.0007 62.6673 93.0007 60.7455V58.1548H97.6834ZM93.505 63.4457H96.6988V59.067H93.9613V60.855C93.9613 62.2781 93.8052 62.9714 93.505 63.4457Z" fill="white" fill-opacity="0.4"/>
<path d="M100.321 64.358H99.456V58.1548H100.417V62.8498L104.067 58.1548H104.931V64.358H103.971V59.6509L100.321 64.358Z" fill="white" fill-opacity="0.4"/>
<path d="M110.014 61.1713C110.771 61.2929 111.239 61.7551 111.239 62.57C111.239 63.7133 110.207 64.431 108.55 64.431C106.809 64.431 106.064 63.7133 106.004 62.4484H107.025C107.169 63.1903 107.541 63.5795 108.562 63.5795C109.582 63.5795 110.231 63.2025 110.231 62.5578C110.231 61.901 109.762 61.6456 108.994 61.6456H107.949V60.782H108.934C109.654 60.782 110.086 60.5144 110.086 59.8576C110.086 59.2981 109.546 58.9332 108.622 58.9332C107.625 58.9332 107.193 59.359 107.061 60.0279H106.04C106.112 58.8724 107.061 58.0818 108.646 58.0818C110.195 58.0818 111.095 58.7751 111.095 59.8333C111.095 60.5996 110.651 61.0375 110.014 61.1713Z" fill="white" fill-opacity="0.4"/>
<path d="M117.746 63.4457H118.058V64.358H117.518C116.701 64.358 116.425 64.0053 116.413 63.3971C116.029 63.9566 115.416 64.431 114.36 64.431C113.015 64.431 112.103 63.7498 112.103 62.6187C112.103 61.378 112.955 60.6847 114.564 60.6847H116.365V60.259C116.365 59.4563 115.801 58.9697 114.84 58.9697C113.976 58.9697 113.399 59.3833 113.279 60.0158H112.295C112.439 58.7994 113.411 58.0818 114.888 58.0818C116.449 58.0818 117.35 58.8724 117.35 60.3198V63.0322C117.35 63.3606 117.47 63.4457 117.746 63.4457ZM116.365 61.8281V61.524H114.468C113.591 61.524 113.099 61.8524 113.099 62.5578C113.099 63.166 113.615 63.5795 114.432 63.5795C115.657 63.5795 116.365 62.8619 116.365 61.8281Z" fill="white" fill-opacity="0.4"/>
<path d="M121.528 57.4493C120.376 57.4493 119.799 56.8047 119.775 55.783H120.592C120.592 56.379 120.856 56.7439 121.54 56.7439C122.225 56.7439 122.513 56.379 122.513 55.783H123.329C123.305 56.8047 122.693 57.4493 121.528 57.4493ZM119.679 64.358H118.815V58.1548H119.775V62.8498L123.426 58.1548H124.29V64.358H123.329V59.6509L119.679 64.358Z" fill="white" fill-opacity="0.4"/>
<path d="M130.07 60.7455V58.1548H131.054V64.358H130.07V61.6578H126.624V64.358H125.639V58.1548H126.624V60.7455H130.07Z" fill="white" fill-opacity="0.4"/>
<path d="M135.226 64.431C133.389 64.431 132.189 63.1538 132.189 61.2564C132.189 59.3711 133.365 58.0818 135.094 58.0818C136.823 58.0818 137.952 59.1887 138 61.0253C138 61.1591 137.988 61.305 137.976 61.451H133.221V61.5361C133.257 62.716 133.99 63.5431 135.154 63.5431C136.019 63.5431 136.691 63.0809 136.895 62.2781H137.892C137.652 63.5187 136.643 64.431 135.226 64.431ZM133.281 60.6239H136.943C136.847 59.5536 136.127 58.9576 135.106 58.9576C134.206 58.9576 133.377 59.6144 133.281 60.6239Z" fill="white" fill-opacity="0.4"/>
<path d="M1.61336 9.83154C1.50811 4.75328 4.88078 1.83889 9.68496 1.73671C13.8327 1.64849 17.6395 3.8356 17.9087 8.18458L13.1344 8.28613C12.9278 6.95992 11.683 5.9582 9.7733 5.99882C7.53532 6.04642 6.36931 7.40182 6.41755 9.72936C6.46642 12.0871 7.68757 13.3917 9.92554 13.3441C11.8353 13.3035 13.0374 12.2498 13.1889 10.9159L17.9632 10.8144C17.8744 15.171 14.1616 17.518 10.0139 17.6063C5.2097 17.7084 1.71925 14.94 1.61336 9.83154Z" fill="white"/>
<path d="M33.9254 1.52354L34.0138 5.78565L28.3443 5.90623L28.5723 16.9091L23.7681 17.0113L23.5401 6.00842L17.8705 6.129L17.7822 1.8669L33.9254 1.52354Z" fill="white"/>
<path d="M45.1571 9.66141L48.266 1.21853L53.6968 1.10302L47.1014 15.6078L47.1991 20.3233C47.2342 22.0161 46.328 22.9426 44.6856 22.917L37.281 22.8628L37.1932 18.6309L42.3567 18.5816L42.2972 15.71L35.1067 1.49842L40.5076 1.38354L43.9636 9.6868L44.0137 12.105L45.2073 12.0796L45.1571 9.66141Z" fill="white"/>
<path d="M68.8854 0.779965L69.1134 11.7828L71.0829 11.741L71.2589 20.2349L66.4547 20.3371L66.367 16.1052L57.3256 16.2976L57.4133 20.5294L52.6091 20.6316L52.4331 12.1376L54.4025 12.0957C55.9694 9.9153 56.5054 6.97052 56.3826 1.04589L68.8854 0.779965ZM59.2067 11.9936L64.3093 11.885L64.1695 5.14425L61.1259 5.20899C60.9237 8.41884 60.3385 10.4272 59.2067 11.9936Z" fill="white"/>
<path d="M90.3273 0.32391L90.6437 15.5889L85.8693 15.6904L85.6312 4.20392L86.4732 1.61552L85.2796 1.64091L82.3184 15.766L72.9488 15.9653L72.6324 0.70027L77.4067 0.598722L77.641 11.9039L76.8028 14.6736L77.9964 14.6483L80.9576 0.523197L90.3273 0.32391Z" fill="white"/>
<path d="M97.41 0.173265L105.556 0L105.873 15.265L101.068 15.3672L100.943 9.32163L99.7495 9.34702L96.7675 13.8256C95.9857 14.9914 95.1005 15.4941 93.7577 15.5227L91.5496 15.5696L91.4675 11.6098L93.7651 11.5609L95.3009 9.32067C93.3246 9.03006 91.7821 8.06491 91.7163 4.891C91.6455 1.47527 94.4857 0.235463 97.41 0.173265ZM98.7257 6.04228L100.874 5.99658L100.821 3.42723L98.6725 3.47293C97.0313 3.50783 96.4706 3.82217 96.4907 4.78945C96.5113 5.78697 97.0846 6.07719 98.7257 6.04228Z" fill="white"/>
<path d="M2.00116 22.7534C2.00116 16.5773 4.9096 13.9598 9.767 12.4305C13.515 11.2541 14.5045 10.6953 14.7743 9.57777H20.2014C19.6617 13.7246 15.6139 14.8127 11.566 15.6656C7.48822 16.5185 5.68918 17.989 5.0895 20.9888L3.89015 23.6357H5.0895C5.74915 19.5771 8.35775 17.2243 12.3156 17.2243C16.9631 17.2243 20.1115 20.4594 20.1115 24.7533C20.1115 29.2236 17.3829 32.6645 11.0563 32.6645C5.23942 32.6645 2.00116 29.0471 2.00116 22.7534ZM6.82857 24.9297C6.82857 27.3119 8.38774 28.5177 11.0563 28.5177C13.7549 28.5177 15.284 27.3119 15.284 24.9297C15.284 22.5475 13.7549 21.3711 11.0563 21.3711C8.35775 21.3711 6.82857 22.5475 6.82857 24.9297Z" fill="#6B05E6"/>
<path d="M26.3561 16.0479C24.4371 16.0479 23.3877 15.2245 23.3877 13.6952C23.3877 12.1953 24.4371 11.3424 26.3561 11.3424C28.2751 11.3424 29.3845 12.1953 29.3845 13.6952C29.3845 15.2245 28.2751 16.0479 26.3561 16.0479ZM34.1519 16.0479C32.2329 16.0479 31.1835 15.2245 31.1835 13.6952C31.1835 12.1953 32.2329 11.3424 34.1519 11.3424C36.0709 11.3424 37.1803 12.1953 37.1803 13.6952C37.1803 15.2245 36.0709 16.0479 34.1519 16.0479ZM22.0084 24.7533C22.0084 20.0477 25.2767 17.2243 29.9841 17.2243C34.6916 17.2243 37.9899 19.9595 37.9899 24.4592V25.9297H26.536C26.536 27.6354 27.7653 28.8413 30.4939 28.8413C32.173 28.8413 33.4323 28.2531 33.7321 27.1355H38.5296C38.2597 29.2824 35.7411 32.6645 30.4939 32.6645C24.677 32.6645 22.0084 28.9589 22.0084 24.7533ZM26.536 23.2828H33.4923C33.4923 22.1652 32.6527 21.077 29.9841 21.077C27.3156 21.077 26.536 22.1652 26.536 23.2828Z" fill="#6B05E6"/>
<path d="M40.0163 37.9583V17.5184H44.8438V18.4301L43.9143 21.077H45.1436C45.9232 19.1066 47.3324 17.2243 51.1104 17.2243C55.4881 17.2243 57.6469 20.7535 57.6469 24.9591C57.6469 29.1648 55.4881 32.6645 51.1104 32.6645C47.3324 32.6645 45.9232 30.7823 45.1436 28.8118H43.9143L44.8438 31.4587V37.9583H40.0163ZM44.8438 24.9591C44.8438 27.4884 46.253 28.5177 48.8316 28.5177C51.4102 28.5177 52.8495 27.4884 52.8495 24.9591C52.8495 22.4299 51.4102 21.3711 48.8316 21.3711C46.253 21.3711 44.8438 22.4299 44.8438 24.9591Z" fill="#6B05E6"/>
<path d="M88.0572 17.5184V28.2236H90.0362V36.4878H85.2087V32.3704H63.0871V36.4878H58.2597V28.2236H60.2386C61.8578 26.1355 62.4574 23.2828 62.4574 17.5184H88.0572ZM65.0661 28.2236H83.2298V21.6652H67.1349C66.8651 24.7827 66.2354 26.7237 65.0661 28.2236Z" fill="#6B05E6"/>
<path d="M91.2226 28.3119C91.2226 25.7532 92.7818 24.2533 97.2794 23.6357L102.047 22.9887C102.047 21.7829 101.087 21.077 99.0185 21.077C97.0995 21.077 96.05 21.8417 96.05 23.1946H91.5225C91.5225 19.4301 94.7907 17.2243 99.0185 17.2243C103.186 17.2243 106.874 19.1948 106.874 24.0769V28.2236H109.063V32.3704H105.705C104.266 32.3704 103.456 31.5764 103.456 30.1647V29.8706L104.206 28.106H103.006C102.437 30.5764 100.967 32.6645 96.7397 32.6645C92.0322 32.6645 91.2226 29.8412 91.2226 28.3119ZM96.05 27.4296C96.05 28.2825 96.8896 28.5472 97.6992 28.5472C100.308 28.5472 102.047 27.459 102.047 25.6356L98.1789 26.165C96.7697 26.3708 96.05 26.5767 96.05 27.4296Z" fill="#6B05E6"/>
<path d="M38.0151 16.6868C37.8856 16.8183 37.746 16.9443 37.594 17.0609C37.3758 17.2284 37.1446 17.3696 36.9051 17.4905C36.9587 17.5355 37.0138 17.5788 37.0664 17.6251C37.4115 17.9296 37.7278 18.2591 38.0151 18.61V16.6868ZM102.047 25.6356C102.047 27.459 100.308 28.5472 97.6992 28.5472C96.8896 28.5472 96.05 28.2825 96.05 27.4296C96.05 26.5767 96.7697 26.3708 98.1789 26.165L102.047 25.6356ZM13.2831 24.9301C13.2831 24.2086 13.0738 23.9564 12.9206 23.8304C12.6948 23.6449 12.161 23.3978 11.0562 23.3978C9.9513 23.3979 9.4175 23.6449 9.19184 23.8304C9.03863 23.9564 8.82932 24.2086 8.82932 24.9301C8.8294 25.6404 9.03954 25.9077 9.20845 26.0476C9.44382 26.2426 9.98103 26.4901 11.0562 26.4901L11.0563 28.5177C8.38774 28.5177 6.82857 27.3119 6.82857 24.9297C6.82857 22.5475 8.35775 21.3711 11.0563 21.3711C13.7549 21.3711 15.284 22.5475 15.284 24.9297L15.2793 25.1499C15.187 27.3862 13.6704 28.5177 11.0563 28.5177L11.0562 26.4901C12.1513 26.4901 12.6841 26.2402 12.9118 26.0506C13.0728 25.9163 13.283 25.6522 13.2831 24.9301ZM50.8487 24.9588C50.8487 24.0896 50.6152 23.8496 50.5195 23.768C50.3536 23.6271 49.9037 23.3979 48.832 23.3978C47.7589 23.3978 47.3222 23.6276 47.1669 23.7611C47.078 23.8376 46.8445 24.0767 46.8445 24.9588C46.8445 25.8404 47.0771 26.0656 47.1572 26.1338C47.3099 26.2636 47.7472 26.4901 48.832 26.4901L48.8316 28.5177L48.362 28.5054C46.0824 28.3831 44.8438 27.3303 44.8438 24.9591C44.8438 22.4299 46.253 21.3711 48.8316 21.3711L49.3019 21.3835C51.5845 21.5092 52.8494 22.5883 52.8495 24.9591L52.845 25.1914C52.7583 27.5515 51.3296 28.5177 48.8316 28.5177L48.832 26.4901C49.9155 26.49 50.366 26.264 50.5292 26.1268C50.6162 26.0537 50.8487 25.8277 50.8487 24.9588ZM83.2298 21.6652V28.2236H65.0661C66.2354 26.7237 66.8651 24.7827 67.1349 21.6652H83.2298ZM68.908 23.6928C68.7665 24.5997 68.5794 25.4297 68.3344 26.1961H81.2286V23.6928H68.908ZM29.9841 21.077C32.6527 21.077 33.4923 22.1652 33.4923 23.2828H26.536C26.536 22.1652 27.3156 21.077 29.9841 21.077ZM106.874 24.0769C106.874 19.1948 103.186 17.2243 99.0185 17.2243C94.7907 17.2243 91.5225 19.4301 91.5225 23.1946H96.05C96.05 21.8417 97.0995 21.077 99.0185 21.077C101.087 21.077 102.047 21.7829 102.047 22.9887L97.2794 23.6357C92.7818 24.2533 91.2226 25.7532 91.2226 28.3119C91.2226 29.7934 91.9824 32.4897 96.3096 32.6568L96.7397 32.6645C100.967 32.6645 102.437 30.5764 103.006 28.106H104.206L103.456 29.8706V30.1647C103.456 31.4883 104.168 32.2685 105.443 32.3608L105.705 32.3704H109.063V28.2236H106.874V24.0769ZM22.0166 25.1459C22.1734 29.0565 24.6884 32.4396 29.9578 32.6538L30.4939 32.6645C35.7411 32.6645 38.2597 29.2824 38.5296 27.1355H33.7321C33.4323 28.2531 32.173 28.8413 30.4939 28.8413L29.9998 28.8271C27.6166 28.6884 26.5361 27.5287 26.536 25.9297H37.9899V24.4592C37.9899 19.9595 34.6916 17.2243 29.9841 17.2243C25.2767 17.2243 22.0084 20.0477 22.0084 24.7533L22.0166 25.1459ZM62.4574 17.5184C62.4574 23.1025 61.8946 25.9542 60.3875 28.0253L60.2386 28.2236H58.2597V36.4878H63.0871V32.3704H85.2087V36.4878H90.0362V28.2236H88.0572V17.5184H62.4574ZM2.01093 23.3355C2.20005 29.0783 5.21698 32.4428 10.5188 32.6538L11.0563 32.6645C17.3829 32.6645 20.1115 29.2236 20.1115 24.7533C20.1115 20.4594 16.9631 17.2243 12.3156 17.2243C8.35775 17.2243 5.74915 19.5771 5.0895 23.6357H3.89015L5.0895 20.9888C5.68918 17.989 7.48822 16.5185 11.566 15.6656C15.6139 14.8127 19.6617 13.7246 20.2014 9.57777H14.7743C14.5045 10.6953 13.515 11.2541 9.767 12.4305C4.9096 13.9598 2.00116 16.5773 2.00116 22.7534L2.01093 23.3355ZM40.0163 37.9583H44.8438V31.4587L43.9143 28.8118H45.1436C45.8988 30.7206 47.245 32.5464 50.7628 32.6587L51.1104 32.6645C55.4881 32.6645 57.6469 29.1648 57.6469 24.9591C57.6468 20.885 55.6207 17.445 51.5142 17.2341L51.1104 17.2243C47.3324 17.2243 45.9232 19.1066 45.1436 21.077H43.9143L44.8438 18.4301V17.5184H40.0163V37.9583ZM29.3845 13.6952C29.3845 12.2889 28.4092 11.4516 26.7059 11.3525L26.3561 11.3424C24.4371 11.3424 23.3877 12.1953 23.3877 13.6952L23.4003 13.9736C23.5226 15.3242 24.5571 16.0479 26.3561 16.0479C28.1551 16.0479 29.2426 15.3242 29.3715 13.9736L29.3845 13.6952ZM31.1958 13.9736C31.3181 15.3241 32.3531 16.0479 34.1519 16.0479C35.9509 16.0479 37.0381 15.3242 37.167 13.9736L37.1803 13.6952C37.1803 12.2891 36.2053 11.4518 34.5024 11.3525L34.1519 11.3424C32.2329 11.3424 31.1835 12.1953 31.1835 13.6952L31.1958 13.9736ZM39.1818 13.6955C39.1818 14.3273 39.0631 14.9364 38.8223 15.491H46.8445V16.1255C48.0131 15.5187 49.4253 15.1971 51.1106 15.1971C53.8935 15.1971 56.1176 16.3495 57.5968 18.2656C59.0285 20.1203 59.6477 22.5332 59.6478 24.9588C59.6478 25.0132 59.6455 25.0678 59.6448 25.1221C60.1747 23.5952 60.4559 21.3365 60.4559 17.5182V15.491H90.0579V20.3333C90.5627 19.0681 91.4007 17.9987 92.4841 17.1757C94.2575 15.8288 96.586 15.1971 99.0182 15.1971C101.375 15.1971 103.814 15.7489 105.714 17.2015C107.697 18.717 108.875 21.0506 108.875 24.0769V26.1961H111.064V34.3979H105.705C104.634 34.3978 103.51 34.098 102.649 33.2536C102.558 33.1641 102.474 33.0699 102.394 32.9745C100.981 34.1214 99.0981 34.6919 96.7395 34.6919C94.7939 34.6918 93.2336 34.2707 92.0376 33.5209V38.5146H83.2073V34.3979H65.0884V38.5146H56.2581V32.9913C54.89 34.0746 53.1501 34.6918 51.1106 34.6919C49.4251 34.6919 48.0131 34.3693 46.8445 33.7624V39.9855H38.0151V31.9451C36.3205 33.5266 33.7964 34.6918 30.4942 34.6919C27.1507 34.6919 24.4738 33.6145 22.6352 31.6996C21.9902 31.0279 21.4744 30.277 21.0747 29.4764C20.6438 30.3433 20.0701 31.1462 19.3354 31.854C17.3856 33.7324 14.5672 34.6919 11.0562 34.6919C7.7288 34.6918 4.87597 33.6446 2.87471 31.4422C0.896429 29.2651 1.05846e-05 26.2332 0 22.7535C0 19.3346 0.811691 16.6291 2.52685 14.5497C4.21254 12.5062 6.57161 11.3135 9.17327 10.4944C11.07 9.89902 12.0576 9.52031 12.5952 9.2145C12.7275 9.13924 12.8018 9.08362 12.8404 9.05217L13.2039 7.55059H22.4837L22.1857 9.84305C21.8151 12.6895 20.1797 14.4926 18.1756 15.6267C17.7806 15.8501 17.3657 16.048 16.9405 16.2285C18.7187 17.098 20.1319 18.4748 21.0288 20.1957C21.4959 19.2642 22.1165 18.4319 22.8853 17.7241C23.0332 17.588 23.1865 17.4591 23.3426 17.3341C23.1981 17.2462 23.057 17.1502 22.9215 17.0431C21.8535 16.1988 21.3865 14.974 21.3864 13.6955C21.3864 12.4219 21.859 11.2053 22.9136 10.3637C23.8961 9.57988 25.142 9.31547 26.3561 9.31547C27.5712 9.31547 28.8169 9.58025 29.8053 10.3459C29.9752 10.4775 30.1303 10.6203 30.2724 10.7705C30.4055 10.6274 30.5508 10.4908 30.7101 10.3637C31.6924 9.58006 32.9377 9.31551 34.1516 9.31547C35.3668 9.31547 36.6134 9.58011 37.6018 10.3459C38.6656 11.1702 39.1818 12.3832 39.1818 13.6955Z" fill="#0F142B"/>
</svg>
