<svg width="184" height="45" viewBox="0 0 184 45" fill="none" xmlns="http://www.w3.org/2000/svg">
<path d="M160.621 38.0348C158.796 38.0348 157.603 36.7596 157.603 34.8649C157.603 32.9824 158.772 31.695 160.49 31.695C162.207 31.695 163.328 32.8002 163.376 34.6342C163.376 34.7678 163.364 34.9135 163.352 35.0592H158.629V35.1443C158.665 36.3223 159.392 37.1482 160.549 37.1482C161.408 37.1482 162.076 36.6867 162.279 35.8851H163.269C163.03 37.1239 162.028 38.0348 160.621 38.0348ZM158.689 34.2334H162.326C162.231 33.1646 161.515 32.5695 160.501 32.5695C159.607 32.5695 158.784 33.2253 158.689 34.2334Z" fill="#111111" fill-opacity="0.4"/>
<path d="M155.498 34.3548V31.7679H156.476V37.9619H155.498V35.2657H152.075V37.9619H151.097V31.7679H152.075V34.3548H155.498Z" fill="#111111" fill-opacity="0.4"/>
<path d="M147.014 31.0635C145.869 31.0635 145.297 30.4198 145.273 29.3996H146.084C146.084 29.9947 146.346 30.3591 147.026 30.3591C147.706 30.3591 147.992 29.9947 147.992 29.3996H148.803C148.779 30.4198 148.171 31.0635 147.014 31.0635ZM145.177 37.9619H144.319V31.7679H145.273V36.4559L148.899 31.7679H149.757V37.9619H148.803V33.2618L145.177 37.9619Z" fill="#111111" fill-opacity="0.4"/>
<path d="M143.257 37.051H143.567V37.9619H143.03C142.219 37.9619 141.945 37.6097 141.933 37.0025C141.551 37.5611 140.943 38.0348 139.893 38.0348C138.557 38.0348 137.651 37.3547 137.651 36.2252C137.651 34.9864 138.498 34.2941 140.096 34.2941H141.885V33.869C141.885 33.0674 141.325 32.5816 140.37 32.5816C139.512 32.5816 138.939 32.9946 138.82 33.6261H137.842C137.985 32.4116 138.951 31.695 140.418 31.695C141.969 31.695 142.863 32.4845 142.863 33.9297V36.6381C142.863 36.966 142.982 37.051 143.257 37.051ZM141.885 35.4357V35.1321H140.001C139.13 35.1321 138.641 35.46 138.641 36.1644C138.641 36.7717 139.154 37.1846 139.965 37.1846C141.181 37.1846 141.885 36.4681 141.885 35.4357Z" fill="#111111" fill-opacity="0.4"/>
<path d="M135.577 34.7799C136.328 34.9013 136.793 35.3629 136.793 36.1766C136.793 37.3182 135.768 38.0348 134.122 38.0348C132.392 38.0348 131.653 37.3182 131.593 36.0551H132.607C132.75 36.796 133.12 37.1846 134.134 37.1846C135.148 37.1846 135.792 36.8081 135.792 36.1644C135.792 35.5086 135.326 35.2536 134.563 35.2536H133.525V34.3913H134.503C135.219 34.3913 135.648 34.1241 135.648 33.4682C135.648 32.9095 135.112 32.5452 134.193 32.5452C133.203 32.5452 132.774 32.9703 132.643 33.6383H131.629C131.701 32.4845 132.643 31.695 134.217 31.695C135.756 31.695 136.65 32.3873 136.65 33.4439C136.65 34.2091 136.209 34.6463 135.577 34.7799Z" fill="#111111" fill-opacity="0.4"/>
<path d="M125.948 37.9619H125.089V31.7679H126.043V36.4559L129.669 31.7679H130.528V37.9619H129.573V33.2618L125.948 37.9619Z" fill="#111111" fill-opacity="0.4"/>
<path d="M123.328 31.7679V37.051H124.294V39.6015H123.316V37.9619H118.355V39.6015H117.377V37.051H117.997C118.438 36.711 118.677 36.2737 118.677 34.3548V31.7679H123.328ZM119.177 37.051H122.35V32.6788H119.631V34.4641C119.631 35.8851 119.476 36.5774 119.177 37.051Z" fill="#111111" fill-opacity="0.4"/>
<path d="M184 22.7805H180.028V21.9425H184V22.7805Z" fill="#111111" fill-opacity="0.4"/>
<path d="M176.372 19.5499C177.744 19.5499 178.829 20.315 178.829 22.3676V25.8168H177.851V22.4283C177.851 21.1409 177.267 20.4608 176.205 20.4608C175.06 20.4608 174.368 21.3231 174.368 22.7198V25.8168H173.39V19.6228H174.237L174.368 20.4608C174.726 19.9871 175.346 19.5499 176.372 19.5499Z" fill="#111111" fill-opacity="0.4"/>
<path d="M169.251 25.8897C167.474 25.8897 166.234 24.6023 166.234 22.7198C166.234 20.8373 167.474 19.5499 169.251 19.5499C171.029 19.5499 172.269 20.8373 172.269 22.7198C172.269 24.6023 171.029 25.8897 169.251 25.8897ZM169.251 25.0031C170.456 25.0031 171.267 24.0436 171.267 22.7198C171.267 21.3959 170.456 20.4365 169.251 20.4365C168.047 20.4365 167.236 21.3959 167.236 22.7198C167.236 24.0436 168.047 25.0031 169.251 25.0031Z" fill="#111111" fill-opacity="0.4"/>
<path d="M164.632 18.5783C164.274 18.5783 164 18.3111 164 17.9346C164 17.5581 164.274 17.2909 164.632 17.2909C164.99 17.2909 165.264 17.5581 165.264 17.9346C165.264 18.3111 164.99 18.5783 164.632 18.5783ZM164.131 25.8168V19.6228H165.109V25.8168H164.131Z" fill="#111111" fill-opacity="0.4"/>
<path d="M160.636 24.2015V20.5336H159.538V19.6228H160.636V17.886H161.614V19.6228H163.188V20.5336H161.614V24.1893C161.614 24.7116 161.792 24.9059 162.317 24.9059H163.283V25.8168H162.222C161.053 25.8168 160.636 25.2945 160.636 24.2015Z" fill="#111111" fill-opacity="0.4"/>
<path d="M159.12 24.9059H159.43V25.8168H158.894C158.083 25.8168 157.808 25.4646 157.797 24.8573C157.415 25.416 156.807 25.8897 155.757 25.8897C154.421 25.8897 153.515 25.2095 153.515 24.08C153.515 22.8412 154.362 22.1489 155.96 22.1489H157.749V21.7239C157.749 20.9223 157.188 20.4365 156.234 20.4365C155.375 20.4365 154.803 20.8494 154.684 21.481H153.706C153.849 20.2664 154.815 19.5499 156.282 19.5499C157.832 19.5499 158.727 20.3393 158.727 21.7846V24.493C158.727 24.8209 158.846 24.9059 159.12 24.9059ZM157.749 23.2906V22.987H155.864C154.994 22.987 154.505 23.3149 154.505 24.0193C154.505 24.6266 155.018 25.0395 155.829 25.0395C157.045 25.0395 157.749 24.3229 157.749 23.2906Z" fill="#111111" fill-opacity="0.4"/>
<path d="M149.962 25.8897C148.185 25.8897 147.016 24.663 147.016 22.7319C147.016 20.8373 148.22 19.5499 149.986 19.5499C151.476 19.5499 152.419 20.4 152.669 21.7603H151.643C151.465 20.9344 150.868 20.4365 149.974 20.4365C148.805 20.4365 148.018 21.3838 148.018 22.7319C148.018 24.08 148.805 25.0031 149.974 25.0031C150.844 25.0031 151.441 24.493 151.632 23.7035H152.669C152.431 25.0395 151.441 25.8897 149.962 25.8897Z" fill="#111111" fill-opacity="0.4"/>
<path d="M144.919 22.7198V19.6228H145.897V25.8168H145.05L144.919 24.9909C144.561 25.4524 143.977 25.8897 142.975 25.8897C141.639 25.8897 140.578 25.1245 140.578 23.072V19.6228H141.556V23.0113C141.556 24.2986 142.128 24.9788 143.142 24.9788C144.251 24.9788 144.919 24.1165 144.919 22.7198Z" fill="#111111" fill-opacity="0.4"/>
<path d="M138.351 20.5701V17.3152H139.329V25.8168H138.482L138.351 24.8209C137.946 25.3917 137.29 25.8897 136.264 25.8897C134.582 25.8897 133.342 24.7359 133.342 22.7198C133.342 20.8251 134.582 19.5499 136.264 19.5499C137.29 19.5499 137.981 19.975 138.351 20.5701ZM136.359 25.0031C137.552 25.0031 138.363 24.0679 138.363 22.7441C138.363 21.3838 137.552 20.4365 136.359 20.4365C135.155 20.4365 134.344 21.3717 134.344 22.7198C134.344 24.0679 135.155 25.0031 136.359 25.0031Z" fill="#111111" fill-opacity="0.4"/>
<path d="M127.34 25.8168V17.3152H132.66V18.2868H128.378V21.0073H131.944V21.9789H128.378V24.8452H132.815V25.8168H127.34Z" fill="#111111" fill-opacity="0.4"/>
<path d="M120.573 25.8168H117.949V19.6228H120.537C122.04 19.6228 122.767 20.2179 122.767 21.2866C122.767 22.0639 122.267 22.489 121.766 22.6105C122.469 22.7198 122.994 23.1691 122.994 24.0193C122.994 25.2217 122.159 25.8168 120.573 25.8168ZM118.927 20.4729V22.2583H120.621C121.432 22.2583 121.778 21.9182 121.778 21.3595C121.778 20.7644 121.432 20.4729 120.621 20.4729H118.927ZM118.927 23.0841V24.9666H120.716C121.551 24.9666 122.004 24.6751 122.004 24.0314C122.004 23.4242 121.551 23.0841 120.716 23.0841H118.927Z" fill="#111111" fill-opacity="0.4"/>
<path d="M129.703 13.6716V12.8093L132.947 9.94307C133.723 9.26295 134.367 8.60711 134.367 7.68408C134.367 6.6153 133.651 6.00805 132.542 6.00805C131.469 6.00805 130.753 6.73676 130.753 7.90269V8.06058H129.751V7.84196C129.751 6.2388 130.86 5.09716 132.542 5.09716C134.343 5.09716 135.392 6.10521 135.392 7.6355C135.392 8.91074 134.581 9.71232 133.592 10.5746L131.087 12.7365H135.452V13.6716H129.703Z" fill="#111111" fill-opacity="0.4"/>
<path d="M118.414 13.6716V5H119.619L123.495 12.1413H123.543C123.535 11.9308 123.523 11.6879 123.507 11.4126C123.491 11.1373 123.479 10.8621 123.471 10.5868C123.463 10.3034 123.459 10.0605 123.459 9.85806V5H124.401V13.6716H123.233L119.309 6.506H119.261C119.277 6.71651 119.289 6.96751 119.297 7.259C119.313 7.54238 119.325 7.82577 119.333 8.10916C119.348 8.39254 119.356 8.64354 119.356 8.86216V13.6716H118.414ZM125.535 13.6716V12.8336H128.6V13.6716H125.535ZM127.061 12.0442C126.719 12.0442 126.413 11.9673 126.143 11.8134C125.88 11.6515 125.674 11.4167 125.523 11.109C125.372 10.8013 125.296 10.4248 125.296 9.97951C125.296 9.31558 125.455 8.80953 125.773 8.46137C126.099 8.10511 126.54 7.92698 127.097 7.92698C127.439 7.92698 127.741 8.00795 128.003 8.16988C128.274 8.32372 128.484 8.55448 128.636 8.86216C128.795 9.16174 128.874 9.53419 128.874 9.97951C128.874 10.6434 128.711 11.1535 128.385 11.5098C128.059 11.8661 127.618 12.0442 127.061 12.0442ZM127.085 11.3398C127.435 11.3398 127.685 11.2264 127.836 10.9997C127.987 10.7649 128.063 10.4248 128.063 9.97951C128.063 9.52609 127.987 9.19412 127.836 8.98361C127.685 8.765 127.435 8.65569 127.085 8.65569C126.743 8.65569 126.493 8.765 126.334 8.98361C126.175 9.19412 126.095 9.52609 126.095 9.97951C126.095 10.4248 126.171 10.7649 126.322 10.9997C126.481 11.2264 126.735 11.3398 127.085 11.3398Z" fill="#111111" fill-opacity="0.4"/>
<path d="M1.60261 14.8905C1.49805 9.81977 4.84824 6.90967 9.62039 6.80764C13.7405 6.71955 17.5219 8.90344 17.7893 13.246L13.0468 13.3474C12.8416 12.0231 11.6051 11.0229 9.70814 11.0635C7.48509 11.111 6.32684 12.4644 6.37476 14.7885C6.42331 17.1428 7.63632 18.4455 9.85937 18.398C11.7564 18.3574 12.9505 17.3052 13.1009 15.9733L17.8435 15.8719C17.7552 20.2221 14.0672 22.5657 9.94712 22.6538C5.17497 22.7558 1.70779 19.9915 1.60261 14.8905Z" fill="#111111"/>
<path d="M33.6993 6.59479L33.787 10.8506L28.1553 10.971L28.3818 21.9577L23.6097 22.0597L23.3831 11.073L17.7514 11.1935L17.6636 6.93764L33.6993 6.59479Z" fill="#111111"/>
<path d="M44.8561 14.7207L47.9442 6.29023L53.3388 6.17489L46.7874 20.6583L46.8845 25.3668C46.9193 27.0571 46.0192 27.9822 44.3877 27.9567L37.0324 27.9026L36.9453 23.6769L42.0744 23.6277L42.0152 20.7603L34.8726 6.5697L40.2376 6.455L43.6705 14.746L43.7203 17.1607L44.9059 17.1353L44.8561 14.7207Z" fill="#111111"/>
<path d="M68.4262 5.85231L68.6527 16.839L70.609 16.7971L70.7839 25.2786L66.0117 25.3806L65.9246 21.155L56.9434 21.347L57.0306 25.5726L52.2584 25.6747L52.0835 17.1932L54.0398 17.1514C55.5962 14.9742 56.1287 12.0337 56.0067 6.11784L68.4262 5.85231ZM58.812 17.0494L63.8805 16.941L63.7418 10.2102L60.7184 10.2748C60.5176 13.4799 59.9362 15.4853 58.812 17.0494Z" fill="#111111"/>
<path d="M89.7251 5.39693L90.0394 20.6394L85.2969 20.7408L85.0604 9.27121L85.8967 6.68664L84.7111 6.71198L81.7696 20.8162L72.4624 21.0152L72.1482 5.77273L76.8907 5.67133L77.1234 16.9598L76.2908 19.7255L77.4765 19.7001L80.4179 5.59592L89.7251 5.39693Z" fill="#111111"/>
<path d="M96.7606 5.2465L104.852 5.07349L105.167 20.316L100.395 20.418L100.27 14.3814L99.0845 14.4067L96.1224 18.8787C95.3458 20.0428 94.4665 20.5447 93.1327 20.5733L90.9393 20.6202L90.8577 16.6662L93.14 16.6174L94.6656 14.3804C92.7024 14.0902 91.1702 13.1265 91.1049 9.95728C91.0346 6.54659 93.8558 5.30861 96.7606 5.2465ZM98.0676 11.1069L100.202 11.0612L100.149 8.49567L98.0147 8.5413C96.3844 8.57615 95.8275 8.89002 95.8474 9.85588C95.8679 10.8519 96.4373 11.1417 98.0676 11.1069Z" fill="#111111"/>
<path d="M1.98776 27.7933C1.98776 21.6264 4.87681 19.0127 9.70183 17.4857C13.4248 16.311 14.4077 15.7531 14.6758 14.6371H20.0667C19.5306 18.7778 15.5097 19.8644 11.4889 20.716C7.43824 21.5676 5.6512 23.036 5.05552 26.0313L3.86415 28.6743H5.05552C5.71076 24.6217 8.30198 22.2724 12.2335 22.2724C16.85 22.2724 19.9773 25.5027 19.9773 29.7903C19.9773 34.254 17.267 37.6898 10.9825 37.6898C5.20444 37.6898 1.98776 34.0778 1.98776 27.7933ZM6.78299 29.9665C6.78299 32.3451 8.33176 33.5492 10.9825 33.5492C13.6631 33.5492 15.1821 32.3451 15.1821 29.9665C15.1821 27.5878 13.6631 26.4131 10.9825 26.4131C8.30198 26.4131 6.78299 27.5878 6.78299 29.9665Z" fill="#6B05E6"/>
<path d="M26.1803 21.0978C24.2741 21.0978 23.2317 20.2755 23.2317 18.7484C23.2317 17.2508 24.2741 16.3991 26.1803 16.3991C28.0865 16.3991 29.1885 17.2508 29.1885 18.7484C29.1885 20.2755 28.0865 21.0978 26.1803 21.0978ZM33.9242 21.0978C32.018 21.0978 30.9755 20.2755 30.9755 18.7484C30.9755 17.2508 32.018 16.3991 33.9242 16.3991C35.8303 16.3991 36.9324 17.2508 36.9324 18.7484C36.9324 20.2755 35.8303 21.0978 33.9242 21.0978ZM21.8616 29.7903C21.8616 25.0916 25.1081 22.2724 29.7842 22.2724C34.4603 22.2724 37.7365 25.0035 37.7365 29.4966V30.9649H26.359C26.359 32.6682 27.5802 33.8722 30.2905 33.8722C31.9584 33.8722 33.2094 33.2849 33.5072 32.1689H38.2726C38.0046 34.3127 35.5027 37.6898 30.2905 37.6898C24.5124 37.6898 21.8616 33.9897 21.8616 29.7903ZM26.359 28.3219H33.2689C33.2689 27.206 32.435 26.1194 29.7842 26.1194C27.1334 26.1194 26.359 27.206 26.359 28.3219Z" fill="#6B05E6"/>
<path d="M39.7495 42.9758V22.5661H44.5447V23.4765L43.6214 26.1194H44.8426C45.617 24.1519 47.0168 22.2724 50.7696 22.2724C55.1181 22.2724 57.2625 25.7964 57.2625 29.9958C57.2625 34.1952 55.1181 37.6898 50.7696 37.6898C47.0168 37.6898 45.617 35.8104 44.8426 33.8428H43.6214L44.5447 36.4858V42.9758H39.7495ZM44.5447 29.9958C44.5447 32.5213 45.9446 33.5492 48.506 33.5492C51.0675 33.5492 52.4971 32.5213 52.4971 29.9958C52.4971 27.4703 51.0675 26.4131 48.506 26.4131C45.9446 26.4131 44.5447 27.4703 44.5447 29.9958Z" fill="#6B05E6"/>
<path d="M87.4701 22.5661V33.2555H89.4359V41.5075H84.6406V37.3962H62.6665V41.5075H57.8712V33.2555H59.837C61.4453 31.1705 62.041 28.3219 62.041 22.5661H87.4701ZM64.6322 33.2555H82.6749V26.7068H66.6873C66.4193 29.8196 65.7938 31.7578 64.6322 33.2555Z" fill="#6B05E6"/>
<path d="M90.6144 33.3436C90.6144 30.7887 92.1632 29.291 96.6308 28.6743L101.366 28.0283C101.366 26.8242 100.413 26.1194 98.3583 26.1194C96.4521 26.1194 95.4097 26.883 95.4097 28.2338H90.9123C90.9123 24.4749 94.1587 22.2724 98.3583 22.2724C102.498 22.2724 106.162 24.24 106.162 29.1148V33.2555H108.336V37.3962H105C103.57 37.3962 102.766 36.6033 102.766 35.1937V34.9L103.511 33.138H102.32C101.754 35.6048 100.294 37.6898 96.0947 37.6898C91.4186 37.6898 90.6144 34.8707 90.6144 33.3436ZM95.4097 32.4626C95.4097 33.3142 96.2436 33.5785 97.0478 33.5785C99.639 33.5785 101.366 32.492 101.366 30.6712L97.5243 31.1998C96.1245 31.4054 95.4097 31.611 95.4097 32.4626Z" fill="#6B05E6"/>
<path d="M37.7617 21.7356C37.633 21.8669 37.4943 21.9928 37.3434 22.1092C37.1267 22.2765 36.897 22.4175 36.6591 22.5382C36.7123 22.5831 36.767 22.6263 36.8193 22.6726C37.1621 22.9766 37.4763 23.3056 37.7617 23.6561V21.7356ZM101.366 30.6712C101.366 32.492 99.639 33.5785 97.0478 33.5785C96.2436 33.5785 95.4097 33.3142 95.4097 32.4626C95.4097 31.611 96.1245 31.4054 97.5243 31.1998L101.366 30.6712ZM13.1945 29.9668C13.1945 29.2463 12.9866 28.9946 12.8344 28.8687C12.6102 28.6835 12.0799 28.4368 10.9825 28.4368C9.88496 28.4368 9.35472 28.6835 9.13056 28.8687C8.97837 28.9946 8.77046 29.2463 8.77046 29.9668C8.77054 30.6761 8.97927 30.9429 9.14706 31.0827C9.38087 31.2774 9.91449 31.5245 10.9825 31.5245L10.9825 33.5492C8.33176 33.5492 6.78299 32.3451 6.78299 29.9665C6.78299 27.5878 8.30198 26.4131 10.9825 26.4131C13.6631 26.4131 15.1821 27.5878 15.1821 29.9665L15.1775 30.1862C15.0858 32.4193 13.5792 33.5492 10.9825 33.5492L10.9825 31.5245C12.0703 31.5245 12.5995 31.275 12.8257 31.0857C12.9857 30.9516 13.1944 30.6878 13.1945 29.9668ZM50.5098 29.9955C50.5097 29.1275 50.2778 28.8879 50.1827 28.8065C50.0179 28.6657 49.571 28.4369 48.5064 28.4368C47.4405 28.4368 47.0067 28.6662 46.8525 28.7996C46.7642 28.876 46.5322 29.1146 46.5322 29.9955C46.5322 30.8757 46.7632 31.1007 46.8428 31.1687C46.9945 31.2983 47.4289 31.5245 48.5064 31.5245L48.506 33.5492L48.0395 33.5368C45.7752 33.4147 44.5447 32.3635 44.5447 29.9958C44.5447 27.4703 45.9446 26.4131 48.506 26.4131L48.9733 26.4255C51.2406 26.5509 52.497 27.6285 52.4971 29.9958L52.4927 30.2278C52.4066 32.5843 50.9874 33.5491 48.506 33.5492L48.5064 31.5245C49.5827 31.5245 50.0302 31.2988 50.1924 31.1618C50.2787 31.0888 50.5098 30.8631 50.5098 29.9955ZM82.6749 26.7068V33.2555H64.6322C65.7938 31.7578 66.4193 29.8196 66.6873 26.7068H82.6749ZM68.4486 28.7314C68.308 29.6369 68.1222 30.4657 67.8789 31.231H80.6871V28.7314H68.4486ZM29.7842 26.1194C32.435 26.1194 33.2689 27.206 33.2689 28.3219H26.359C26.359 27.206 27.1334 26.1194 29.7842 26.1194ZM106.162 29.1148C106.162 24.24 102.498 22.2724 98.3583 22.2724C94.1587 22.2724 90.9123 24.4749 90.9123 28.2338H95.4097C95.4097 26.883 96.4521 26.1194 98.3583 26.1194C100.413 26.1194 101.366 26.8242 101.366 28.0283L96.6308 28.6743C92.1632 29.291 90.6144 30.7887 90.6144 33.3436C90.6144 34.8229 91.3692 37.5153 95.6675 37.6821L96.0947 37.6898C100.294 37.6898 101.754 35.6048 102.32 33.138H103.511L102.766 34.9V35.1937C102.766 36.5153 103.473 37.2944 104.74 37.3866L105 37.3962H108.336V33.2555H106.162V29.1148ZM21.8699 30.1823C22.0256 34.0871 24.5238 37.4652 29.758 37.6791L30.2905 37.6898C35.5027 37.6898 38.0046 34.3127 38.2726 32.1689H33.5072C33.2094 33.2849 31.9584 33.8722 30.2905 33.8722L29.7998 33.8581C27.4324 33.7195 26.3591 32.5616 26.359 30.9649H37.7365V29.4966C37.7365 25.0035 34.4603 22.2724 29.7842 22.2724C25.1081 22.2724 21.8616 25.0916 21.8616 29.7903L21.8699 30.1823ZM62.041 22.5661C62.041 28.1419 61.482 30.9894 59.9849 33.0575L59.837 33.2555H57.8712V41.5075H62.6665V37.3962H84.6406V41.5075H89.4359V33.2555H87.4701V22.5661H62.041ZM1.99752 28.3746C2.18538 34.1089 5.18221 37.4684 10.4487 37.6791L10.9825 37.6898C17.267 37.6898 19.9773 34.254 19.9773 29.7903C19.9773 25.5027 16.85 22.2724 12.2335 22.2724C8.30198 22.2724 5.71076 24.6217 5.05552 28.6743H3.86415L5.05552 26.0313C5.6512 23.036 7.43824 21.5676 11.4889 20.716C15.5097 19.8644 19.5306 18.7778 20.0667 14.6371H14.6758C14.4077 15.7531 13.4248 16.311 9.70183 17.4857C4.87681 19.0127 1.98776 21.6264 1.98776 27.7933L1.99752 28.3746ZM39.7495 42.9758H44.5447V36.4858L43.6214 33.8428H44.8426C45.5928 35.7487 46.9301 37.5718 50.4243 37.6841L50.7696 37.6898C55.1181 37.6898 57.2625 34.1952 57.2625 29.9958C57.2624 25.9277 55.2499 22.4928 51.1707 22.2822L50.7696 22.2724C47.0168 22.2724 45.617 24.1519 44.8426 26.1194H43.6214L44.5447 23.4765V22.5661H39.7495V42.9758ZM29.1885 18.7484C29.1885 17.3442 28.2198 16.5082 26.5278 16.4093L26.1803 16.3991C24.2741 16.3991 23.2317 17.2508 23.2317 18.7484L23.2443 19.0265C23.3658 20.3751 24.3933 21.0978 26.1803 21.0978C27.9673 21.0978 29.0476 20.3751 29.1757 19.0265L29.1885 18.7484ZM30.9878 19.0265C31.1093 20.375 32.1373 21.0977 33.9242 21.0978C35.7112 21.0978 36.7911 20.3751 36.9192 19.0265L36.9324 18.7484C36.9324 17.3444 35.9639 16.5084 34.2724 16.4093L33.9242 16.3991C32.018 16.3991 30.9755 17.2508 30.9755 18.7484L30.9878 19.0265ZM38.9206 18.7488C38.9206 19.3796 38.8027 19.9879 38.5634 20.5417H46.5322V21.1752C47.693 20.5693 49.0958 20.2481 50.7699 20.2481C53.5342 20.2482 55.7435 21.3988 57.2128 23.3121C58.635 25.1641 59.2501 27.5735 59.2501 29.9955C59.2501 30.0498 59.2478 30.1043 59.2472 30.1586C59.7735 28.6339 60.0528 26.3785 60.0528 22.5659V20.5417H89.4576V25.3768C89.959 24.1134 90.7914 23.0457 91.8676 22.2239C93.6292 20.8789 95.9421 20.2482 98.3581 20.2481C100.699 20.2481 103.122 20.7992 105.01 22.2496C106.979 23.7629 108.15 26.0931 108.15 29.1148V31.231H110.324V39.4206H105C103.937 39.4206 102.82 39.1212 101.965 38.2781C101.874 38.1887 101.791 38.0946 101.712 37.9993C100.308 39.1445 98.4374 39.7142 96.0946 39.7142C94.162 39.7142 92.6121 39.2936 91.424 38.5449V43.5313H82.6526V39.4206H64.6545V43.5313H55.8831V38.0161C54.5241 39.0979 52.7958 39.7141 50.7699 39.7142C49.0956 39.7142 47.693 39.3921 46.5322 38.7861V45H37.7617V36.9714C36.0784 38.5507 33.5711 39.7141 30.2909 39.7142C26.9697 39.7142 24.3106 38.6384 22.4843 36.7263C21.8436 36.0556 21.3313 35.3059 20.9342 34.5064C20.5062 35.372 19.9363 36.1737 19.2065 36.8805C17.2697 38.7561 14.4701 39.7142 10.9825 39.7142C7.67727 39.7142 4.84347 38.6684 2.85554 36.4693C0.890453 34.2955 1.05571e-05 31.268 0 27.7934C0 24.3796 0.806279 21.678 2.51001 19.6017C4.18445 17.5612 6.5278 16.3703 9.11212 15.5524C10.9962 14.9579 11.9772 14.5798 12.5112 14.2744C12.6426 14.1992 12.7165 14.1437 12.7548 14.1123L13.1159 12.6129H22.3338L22.0378 14.902C21.6697 17.7443 20.0452 19.5447 18.0544 20.6771C17.6621 20.9002 17.25 21.0978 16.8275 21.278C18.5939 22.1463 19.9977 23.521 20.8886 25.2394C21.3526 24.3092 21.9691 23.4782 22.7327 22.7715C22.8796 22.6355 23.0319 22.5068 23.187 22.382C23.0434 22.2943 22.9033 22.1984 22.7687 22.0915C21.7078 21.2484 21.2439 20.0254 21.2438 18.7488C21.2438 17.477 21.7132 16.2623 22.7609 15.4219C23.7367 14.6392 24.9744 14.3752 26.1804 14.3752C27.3874 14.3752 28.6248 14.6396 29.6066 15.4041C29.7754 15.5355 29.9294 15.6781 30.0706 15.8281C30.2028 15.6852 30.3472 15.5488 30.5054 15.4219C31.4812 14.6394 32.7181 14.3753 33.9239 14.3752C35.131 14.3752 36.3693 14.6395 37.3511 15.4041C38.4079 16.2272 38.9206 17.4384 38.9206 18.7488Z" fill="#EBEBEB"/>
</svg>
