<svg width="134" height="40" viewBox="0 0 134 40" fill="none" xmlns="http://www.w3.org/2000/svg">
<path d="M0 2.71072L4.43752 0.0853778V9.46617H4.57294C5.16669 8.13216 6.44795 6.49932 9.12504 6.49932C12.6355 6.49932 15.6042 9.29542 15.6042 14.9303C15.6042 20.4158 12.7605 23.3719 9.11463 23.3719C6.53128 23.3719 5.18753 21.8458 4.57294 20.4798H4.37502V23.1051H0V2.71072ZM7.70837 10.1172C5.55211 10.1172 4.34377 11.9848 4.34377 14.909C4.34377 17.8331 5.57294 19.7541 7.70837 19.7541C9.88547 19.7541 11.073 17.7691 11.073 14.909C11.073 12.0702 9.9063 10.1172 7.70837 10.1172Z" fill="white"/>
<path d="M17.6852 9.33811L22.1227 6.71276V23.1051H17.6852V9.33811ZM17.5185 2.29451C17.5185 1.0352 18.6019 0 19.9144 0C21.2373 0 22.3206 1.0352 22.3206 2.29451C22.3206 3.56449 21.2373 4.59968 19.9144 4.59968C18.6019 4.59968 17.5185 3.56449 17.5185 2.29451Z" fill="white"/>
<path d="M24.7974 7.9614L29.0995 5.42144V9.57289H29.2662C29.8495 7.54519 31.3183 6.47798 33.11 6.47798C33.5579 6.47798 34.11 6.54201 34.5058 6.63806V10.6721C34.0891 10.5334 33.2454 10.4267 32.6308 10.4267C30.6724 10.4267 29.2349 11.814 29.2349 13.8311V23.1051H24.7974V7.9614Z" fill="white"/>
<path d="M41.8159 23.3719C38.1701 23.3719 35.3263 20.4158 35.3263 14.9303C35.3263 9.29542 38.2951 6.49932 41.8055 6.49932C44.4826 6.49932 45.7639 8.13216 46.3576 9.46617H46.493V0.0960502L50.9201 2.71072V23.1051H46.5451V20.4798H46.3576C45.743 21.8458 44.3993 23.3719 41.8159 23.3719ZM39.8576 14.909C39.8576 17.7691 41.0451 19.7541 43.2222 19.7541C45.3576 19.7541 46.5868 17.8331 46.5868 14.909C46.5868 11.9848 45.3785 10.1172 43.2222 10.1172C41.0243 10.1172 39.8576 12.0702 39.8576 14.909Z" fill="white"/>
<path d="M58.1849 2.71072V23.1051H53.7474V0.0853778L58.1849 2.71072Z" fill="#6B06E6"/>
<path d="M60.1096 18.5268C60.1096 14.8663 62.9534 13.7777 66.1201 13.4789C68.9014 13.2014 69.9951 13.0627 69.9951 12.0061V11.9421C69.9951 10.5974 69.1305 9.81835 67.6201 9.81835C66.0263 9.81835 65.0784 10.6188 64.7763 11.7073L61.2971 9.65827C62.3909 7.67326 64.5992 6.49932 67.6409 6.49932C71.2034 6.49932 74.4326 8.14283 74.4326 12.0488V23.1051H70.2243V20.832H70.0993C69.318 22.3581 67.7868 23.4146 65.4222 23.4146C62.3701 23.4146 60.1096 21.7711 60.1096 18.5268ZM66.943 16.243C65.3805 16.4671 64.3492 17.0967 64.3492 18.3774C64.3492 19.626 65.3284 20.277 66.693 20.277C68.6409 20.277 70.0264 18.9644 70.0264 17.2461V15.5066C69.4951 15.8694 67.9118 16.1042 66.943 16.243Z" fill="#6B06E6"/>
<path d="M77.0787 2.71072L81.5162 0.0853778V9.46617H81.6516C82.2454 8.13216 83.5266 6.49932 86.2037 6.49932C89.7142 6.49932 92.6829 9.29542 92.6829 14.9303C92.6829 20.4158 89.8392 23.3719 86.1933 23.3719C83.61 23.3719 82.2662 21.8458 81.6516 20.4798H81.4537V23.1051H77.0787V2.71072ZM84.7871 10.1172C82.6308 10.1172 81.4225 11.9848 81.4225 14.909C81.4225 17.8331 82.6516 19.7541 84.7871 19.7541C86.9641 19.7541 88.1517 17.7691 88.1517 14.909C88.1517 12.0702 86.985 10.1172 84.7871 10.1172Z" fill="#6B06E6"/>
<rect x="90.4881" y="3.74024" width="41.7792" height="19.2993" rx="9.64963" transform="rotate(-0.111603 90.4881 3.74024)" fill="#111111" stroke="white" stroke-width="1.46121"/>
<path d="M97.7318 16.9865C95.9828 16.9899 94.9272 15.9384 94.924 14.3121C94.9208 12.6755 95.9927 11.6097 97.6191 11.6065C99.1942 11.6034 100.26 12.5833 100.283 14.1277C100.284 14.2812 100.274 14.4551 100.243 14.6188L96.4282 14.6262L96.4283 14.6978C96.4605 15.4444 96.9421 15.8936 97.6683 15.8921C98.2513 15.891 98.66 15.6345 98.7818 15.1433L100.204 15.1405C100.042 16.1637 99.1331 16.9837 97.7318 16.9865ZM96.4571 13.6851L98.8301 13.6805C98.7265 13.0363 98.286 12.6792 97.6314 12.6805C97.0074 12.6817 96.5377 13.061 96.4571 13.6851Z" fill="white"/>
<path d="M104.883 12.3083L104.878 9.75122L106.32 9.74841L106.334 16.9083L105.076 16.9108L104.932 16.1849C104.585 16.6356 104.074 16.9741 103.317 16.9756C101.906 16.9783 100.871 15.9473 100.867 14.28C100.864 12.6537 101.895 11.5982 103.296 11.5954C104.023 11.594 104.545 11.8794 104.883 12.3083ZM103.632 15.7987C104.42 15.7972 104.909 15.1825 104.908 14.2926C104.906 13.3925 104.414 12.7695 103.626 12.7711C102.838 12.7726 102.338 13.3873 102.34 14.2874C102.342 15.1875 102.844 15.8002 103.632 15.7987Z" fill="white"/>
<path d="M107.715 15.4021L107.711 12.8654L106.841 12.8671L106.839 11.6499L107.708 11.6482L107.705 10.1753L109.147 10.1725L109.15 11.6454L110.357 11.6431L110.36 12.8602L109.153 12.8626L109.157 15.164C109.158 15.5322 109.301 15.6854 109.68 15.6846L110.396 15.6832L110.398 16.9004L109.222 16.9027C108.22 16.9047 107.717 16.4045 107.715 15.4021Z" fill="white"/>
<path d="M113.584 16.9556C111.835 16.959 110.779 15.9075 110.776 14.2812C110.773 12.6446 111.845 11.5788 113.471 11.5756C115.046 11.5725 116.112 12.5524 116.136 14.0969C116.136 14.2503 116.126 14.4242 116.096 14.5879L112.28 14.5953L112.28 14.6669C112.313 15.4136 112.794 15.8627 113.52 15.8613C114.103 15.8601 114.512 15.6036 114.634 15.1124L116.056 15.1096C115.894 16.1328 114.985 16.9529 113.584 16.9556ZM112.309 13.6543L114.682 13.6496C114.579 13.0055 114.138 12.6483 113.484 12.6496C112.86 12.6508 112.39 13.0302 112.309 13.6543Z" fill="white"/>
<path d="M119.405 16.9443C117.737 16.9475 116.723 15.9164 116.719 14.2594C116.716 12.6331 117.778 11.5672 119.445 11.564C120.877 11.5612 121.769 12.3368 121.976 13.5843L120.472 13.5872C120.348 13.0658 119.99 12.7392 119.427 12.7403C118.67 12.7418 118.191 13.3666 118.192 14.2565C118.194 15.1566 118.676 15.7694 119.433 15.7679C119.995 15.7668 120.373 15.4286 120.475 14.8965L121.988 14.8935C121.786 16.152 120.837 16.9415 119.405 16.9443Z" fill="white"/>
<path d="M125.739 11.5517C126.905 11.5495 127.868 12.1715 127.871 13.9513L127.877 16.8664L126.435 16.8692L126.429 14.0768C126.428 13.2176 126.079 12.7376 125.363 12.739C124.627 12.7404 124.188 13.2731 124.189 14.1732L124.195 16.8736L122.753 16.8764L122.739 9.71643L124.181 9.71363L124.186 12.2605C124.523 11.8507 124.992 11.5532 125.739 11.5517Z" fill="white"/>
<path d="M1.1122 38.3659V30.0068H2.29463L6.09951 36.8907H6.14634C6.13854 36.6878 6.12683 36.4537 6.11122 36.1883C6.09561 35.9229 6.0839 35.6576 6.0761 35.3922C6.06829 35.119 6.06439 34.8849 6.06439 34.6898V30.0068H6.98927V38.3659H5.84195L1.99024 31.4585H1.94341C1.95902 31.6615 1.97073 31.9034 1.97854 32.1844C1.99415 32.4576 2.00585 32.7307 2.01366 33.0039C2.02927 33.2771 2.03707 33.519 2.03707 33.7298V38.3659H1.1122ZM8.10146 38.3659V37.5581H11.1102V38.3659H8.10146ZM9.6 36.7971C9.26439 36.7971 8.9639 36.7229 8.69854 36.5746C8.44098 36.4185 8.23805 36.1922 8.08976 35.8956C7.94146 35.599 7.86732 35.2361 7.86732 34.8068C7.86732 34.1668 8.02342 33.679 8.33561 33.3434C8.65561 33 9.08878 32.8283 9.63512 32.8283C9.97073 32.8283 10.2673 32.9063 10.5249 33.0624C10.7902 33.2107 10.9971 33.4332 11.1454 33.7298C11.3015 34.0185 11.3795 34.3776 11.3795 34.8068C11.3795 35.4468 11.2195 35.9385 10.8995 36.282C10.5795 36.6254 10.1463 36.7971 9.6 36.7971ZM9.62342 36.1181C9.96683 36.1181 10.2127 36.0088 10.361 35.7903C10.5093 35.5639 10.5834 35.2361 10.5834 34.8068C10.5834 34.3698 10.5093 34.0498 10.361 33.8468C10.2127 33.6361 9.96683 33.5307 9.62342 33.5307C9.28781 33.5307 9.04195 33.6361 8.88585 33.8468C8.72976 34.0498 8.65171 34.3698 8.65171 34.8068C8.65171 35.2361 8.72585 35.5639 8.87415 35.7903C9.03024 36.0088 9.28 36.1181 9.62342 36.1181ZM12.1935 38.3659V37.5346L15.3779 34.7717C16.1389 34.1161 16.7711 33.4839 16.7711 32.5942C16.7711 31.5639 16.0687 30.9785 14.9799 30.9785C13.9262 30.9785 13.2238 31.681 13.2238 32.8049V32.9571H12.2404V32.7463C12.2404 31.201 13.3291 30.1005 14.9799 30.1005C16.7477 30.1005 17.7779 31.0722 17.7779 32.5473C17.7779 33.7766 16.9818 34.5493 16.0101 35.3805L13.5516 37.4644H17.8365V38.3659H12.1935ZM24.4965 38.3659H21.9209V32.3951H24.4613C25.9365 32.3951 26.6506 32.9688 26.6506 33.999C26.6506 34.7483 26.1589 35.1581 25.6672 35.2751C26.3579 35.3805 26.873 35.8137 26.873 36.6332C26.873 37.7922 26.0535 38.3659 24.4965 38.3659ZM22.8809 33.2146V34.9356H24.5433C25.3394 34.9356 25.6789 34.6078 25.6789 34.0693C25.6789 33.4956 25.3394 33.2146 24.5433 33.2146H22.8809ZM22.8809 35.7317V37.5463H24.637C25.4565 37.5463 25.9013 37.2654 25.9013 36.6449C25.9013 36.0595 25.4565 35.7317 24.637 35.7317H22.8809ZM31.1391 38.3659V30.1707H36.3606V31.1073H32.1576V33.7298H35.6581V34.6663H32.1576V37.4293H36.5127V38.3659H31.1391ZM41.9473 33.3083V30.1707H42.9073V38.3659H42.0761L41.9473 37.4059C41.5493 37.9561 40.9054 38.4361 39.8985 38.4361C38.2478 38.4361 37.0302 37.3239 37.0302 35.3805C37.0302 33.5542 38.2478 32.3249 39.8985 32.3249C40.9054 32.3249 41.5844 32.7346 41.9473 33.3083ZM39.9922 37.5815C41.1629 37.5815 41.959 36.68 41.959 35.4039C41.959 34.0927 41.1629 33.1795 39.9922 33.1795C38.8098 33.1795 38.0137 34.081 38.0137 35.3805C38.0137 36.68 38.8098 37.5815 39.9922 37.5815ZM48.3946 35.3805V32.3951H49.3546V38.3659H48.5234L48.3946 37.5698C48.0434 38.0146 47.4697 38.4361 46.4863 38.4361C45.1751 38.4361 44.1331 37.6985 44.1331 35.72V32.3951H45.0931V35.6615C45.0931 36.9024 45.6551 37.5581 46.6502 37.5581C47.739 37.5581 48.3946 36.7268 48.3946 35.3805ZM53.3442 38.4361C51.5998 38.4361 50.4525 37.2537 50.4525 35.3922C50.4525 33.5659 51.6349 32.3249 53.3676 32.3249C54.831 32.3249 55.7559 33.1444 56.0018 34.4556H54.9949C54.8193 33.6595 54.234 33.1795 53.3559 33.1795C52.2086 33.1795 51.4359 34.0927 51.4359 35.3922C51.4359 36.6917 52.2086 37.5815 53.3559 37.5815C54.2106 37.5815 54.7959 37.0898 54.9832 36.3288H56.0018C55.7676 37.6166 54.7959 38.4361 53.3442 38.4361ZM62.3342 37.4878H62.6386V38.3659H62.1118C61.3157 38.3659 61.0464 38.0263 61.0347 37.441C60.6601 37.9795 60.063 38.4361 59.0328 38.4361C57.7216 38.4361 56.8318 37.7805 56.8318 36.6917C56.8318 35.4976 57.663 34.8302 59.2318 34.8302H60.9879V34.4205C60.9879 33.6478 60.4377 33.1795 59.5011 33.1795C58.6581 33.1795 58.0962 33.5776 57.9791 34.1863H57.0191C57.1596 33.0156 58.1079 32.3249 59.5479 32.3249C61.0699 32.3249 61.9479 33.0859 61.9479 34.479V37.0898C61.9479 37.4059 62.065 37.4878 62.3342 37.4878ZM60.9879 35.9307V35.6381H59.1381C58.2835 35.6381 57.8035 35.9542 57.8035 36.6332C57.8035 37.2185 58.3069 37.6166 59.103 37.6166C60.2972 37.6166 60.9879 36.9259 60.9879 35.9307ZM63.8215 36.8088V33.2732H62.7445V32.3951H63.8215V30.721H64.7815V32.3951H66.3269V33.2732H64.7815V36.7971C64.7815 37.3005 64.9571 37.4878 65.4723 37.4878H66.4206V38.3659H65.3786C64.2313 38.3659 63.8215 37.8624 63.8215 36.8088ZM67.7441 31.3883C67.3929 31.3883 67.1236 31.1307 67.1236 30.7678C67.1236 30.4049 67.3929 30.1473 67.7441 30.1473C68.0953 30.1473 68.3646 30.4049 68.3646 30.7678C68.3646 31.1307 68.0953 31.3883 67.7441 31.3883ZM67.2524 38.3659V32.3951H68.2124V38.3659H67.2524ZM72.2788 38.4361C70.5344 38.4361 69.3168 37.1951 69.3168 35.3805C69.3168 33.5659 70.5344 32.3249 72.2788 32.3249C74.0232 32.3249 75.2407 33.5659 75.2407 35.3805C75.2407 37.1951 74.0232 38.4361 72.2788 38.4361ZM72.2788 37.5815C73.4612 37.5815 74.2573 36.6566 74.2573 35.3805C74.2573 34.1044 73.4612 33.1795 72.2788 33.1795C71.0963 33.1795 70.3002 34.1044 70.3002 35.3805C70.3002 36.6566 71.0963 37.5815 72.2788 37.5815ZM79.2684 32.3249C80.6148 32.3249 81.6801 33.0624 81.6801 35.041V38.3659H80.7201V35.0995C80.7201 33.8585 80.1465 33.2029 79.1045 33.2029C77.9806 33.2029 77.3016 34.0342 77.3016 35.3805V38.3659H76.3416V32.3951H77.1728L77.3016 33.2029C77.6528 32.7463 78.2616 32.3249 79.2684 32.3249ZM86.7558 35.439H82.8573V34.6312H86.7558V35.439ZM93.2946 32.3951V37.4878H94.2429V39.9463H93.2829V38.3659H88.4127V39.9463H87.4527V37.4878H88.0614C88.4946 37.16 88.7288 36.7385 88.7288 34.8888V32.3951H93.2946ZM89.2205 37.4878H92.3346V33.2732H89.6653V34.9942C89.6653 36.3639 89.5131 37.0312 89.2205 37.4878ZM95.8659 38.3659H95.023V32.3951H95.9596V36.9142L99.5186 32.3951H100.362V38.3659H99.4249V33.8351L95.8659 38.3659ZM105.318 35.2985C106.055 35.4156 106.512 35.8605 106.512 36.6449C106.512 37.7454 105.505 38.4361 103.89 38.4361C102.192 38.4361 101.466 37.7454 101.408 36.5278H102.403C102.543 37.242 102.906 37.6166 103.901 37.6166C104.896 37.6166 105.529 37.2537 105.529 36.6332C105.529 36.001 105.072 35.7551 104.323 35.7551H103.304V34.9239H104.264C104.967 34.9239 105.388 34.6663 105.388 34.0342C105.388 33.4956 104.861 33.1444 103.96 33.1444C102.988 33.1444 102.567 33.5542 102.438 34.1981H101.443C101.513 33.0859 102.438 32.3249 103.983 32.3249C105.494 32.3249 106.372 32.9922 106.372 34.0107C106.372 34.7483 105.938 35.1698 105.318 35.2985ZM112.856 37.4878H113.161V38.3659H112.634C111.838 38.3659 111.569 38.0263 111.557 37.441C111.182 37.9795 110.585 38.4361 109.555 38.4361C108.244 38.4361 107.354 37.7805 107.354 36.6917C107.354 35.4976 108.185 34.8302 109.754 34.8302H111.51V34.4205C111.51 33.6478 110.96 33.1795 110.023 33.1795C109.18 33.1795 108.618 33.5776 108.501 34.1863H107.541C107.682 33.0156 108.63 32.3249 110.07 32.3249C111.592 32.3249 112.47 33.0859 112.47 34.479V37.0898C112.47 37.4059 112.587 37.4878 112.856 37.4878ZM111.51 35.9307V35.6381H109.66C108.806 35.6381 108.326 35.9542 108.326 36.6332C108.326 37.2185 108.829 37.6166 109.625 37.6166C110.819 37.6166 111.51 36.9259 111.51 35.9307ZM116.545 31.7161C115.421 31.7161 114.859 31.0956 114.835 30.1122H115.631C115.631 30.6859 115.889 31.0371 116.556 31.0371C117.224 31.0371 117.505 30.6859 117.505 30.1122H118.301C118.277 31.0956 117.68 31.7161 116.545 31.7161ZM114.742 38.3659H113.899V32.3951H114.835V36.9142L118.394 32.3951H119.237V38.3659H118.301V33.8351L114.742 38.3659ZM124.873 34.8888V32.3951H125.833V38.3659H124.873V35.7668H121.513V38.3659H120.553V32.3951H121.513V34.8888H124.873ZM129.901 38.4361C128.11 38.4361 126.939 37.2068 126.939 35.3805C126.939 33.5659 128.086 32.3249 129.772 32.3249C131.458 32.3249 132.558 33.3902 132.605 35.1581C132.605 35.2868 132.593 35.4273 132.582 35.5678H127.946V35.6498C127.981 36.7854 128.695 37.5815 129.83 37.5815C130.673 37.5815 131.329 37.1366 131.528 36.3639H132.5C132.266 37.5581 131.282 38.4361 129.901 38.4361ZM128.004 34.7717H131.575C131.481 33.7415 130.779 33.1678 129.784 33.1678C128.906 33.1678 128.098 33.8 128.004 34.7717Z" fill="white"/>
</svg>
